{"accessors" : [{"bufferView" : 0, "byteOffset" : 0, "componentType" : 5123, "count" : 654, "type" : "SCALAR", "max" : [537], "min" : [0]}, {"bufferView" : 1, "byteOffset" : 0, "componentType" : 5126, "count" : 538, "type" : "VEC3", "max" : [1, 1, 1.1059187650680542], "min" : [-1.0866761207580566, -1, -1], "name" : "POSITION"}, {"bufferView" : 1, "byteOffset" : 12, "componentType" : 5126, "count" : 538, "type" : "VEC3", "max" : [1.0000044107437134, 1.0000044107437134, 1.0000044107437134], "min" : [-1.0000044107437134, -1.0000044107437134, -1.0000044107437134], "name" : "NORMAL"}, {"bufferView" : 1, "byteOffset" : 24, "componentType" : 5126, "count" : 538, "type" : "VEC2", "max" : [0.9473820328712463, 0.6870195269584656], "min" : [0.08118639886379242, 0.05213749408721924], "name" : "TEXCOORD_0"}, {"bufferView" : 0, "byteOffset" : 1308, "componentType" : 5123, "count" : 384, "type" : "SCALAR", "max" : [323], "min" : [0]}, {"bufferView" : 2, "byteOffset" : 0, "componentType" : 5126, "count" : 324, "type" : "VEC3", "max" : [0.8133014440536499, 2.334709882736206, 1.6554046869277954], "min" : [-2.4975085258483887, -0.976099967956543, -1.7781482934951782], "name" : "POSITION"}, {"bufferView" : 2, "byteOffset" : 12, "componentType" : 5126, "count" : 324, "type" : "VEC3", "max" : [1.0000044107437134, 1.0000044107437134, 1.0000044107437134], "min" : [-1.0000044107437134, -1.0000044107437134, -1.0000044107437134], "name" : "NORMAL"}, {"bufferView" : 2, "byteOffset" : 24, "componentType" : 5126, "count" : 324, "type" : "VEC2", "max" : [0.9429409503936768, 0.08658850193023682], "min" : [0.07674529403448105, 0.05705904960632324], "name" : "TEXCOORD_0"}, {"bufferView" : 0, "byteOffset" : 2076, "componentType" : 5123, "count" : 444, "type" : "SCALAR", "max" : [379], "min" : [0]}, {"bufferView" : 3, "byteOffset" : 0, "componentType" : 5126, "count" : 380, "type" : "VEC3", "max" : [1, 0.1160132959485054, 2.7013516426086426], "min" : [-1, 0.025539107620716095, 0.7013517618179321], "name" : "POSITION"}, {"bufferView" : 3, "byteOffset" : 12, "componentType" : 5126, "count" : 380, "type" : "VEC3", "max" : [1.0000044107437134, 1.0000044107437134, 1.0000044107437134], "min" : [-1.0000044107437134, -1.0000044107437134, -1.0000044107437134], "name" : "NORMAL"}, {"bufferView" : 3, "byteOffset" : 24, "componentType" : 5126, "count" : 380, "type" : "VEC2", "max" : [0.6858379244804382, 0.6902176141738892], "min" : [0.06690219044685364, 0.07674533128738403], "name" : "TEXCOORD_0"}, {"bufferView" : 0, "byteOffset" : 2964, "componentType" : 5123, "count" : 144, "type" : "SCALAR", "max" : [122], "min" : [0]}, {"bufferView" : 4, "byteOffset" : 0, "componentType" : 5126, "count" : 123, "type" : "VEC3", "max" : [1, 1.3390724658966064, 1.135168194770813], "min" : [-1, -1, -1], "name" : "POSITION"}, {"bufferView" : 4, "byteOffset" : 12, "componentType" : 5126, "count" : 123, "type" : "VEC3", "max" : [1.0000042915344238, 1.0000044107437134, 0.9998959302902222], "min" : [-1.0000044107437134, -1.0000044107437134, -1.0000042915344238], "name" : "NORMAL"}, {"bufferView" : 4, "byteOffset" : 24, "componentType" : 5126, "count" : 123, "type" : "VEC2", "max" : [0.565460741519928, 0.4310981035232544], "min" : [0.05705904960632324, 0.06198066473007202], "name" : "TEXCOORD_0"}, {"bufferView" : 0, "byteOffset" : 3252, "componentType" : 5123, "count" : 702, "type" : "SCALAR", "max" : [589], "min" : [0]}, {"bufferView" : 5, "byteOffset" : 0, "componentType" : 5126, "count" : 590, "type" : "VEC3", "max" : [1, 1.3992235660552979, 1.2983216047286987], "min" : [-1, -36.04493713378906, -1.298322319984436], "name" : "POSITION"}, {"bufferView" : 5, "byteOffset" : 12, "componentType" : 5126, "count" : 590, "type" : "VEC3", "max" : [1.0000044107437134, 1.0000044107437134, 1.0000044107437134], "min" : [-1.0000044107437134, -1.0000044107437134, -1.0000044107437134], "name" : "NORMAL"}, {"bufferView" : 5, "byteOffset" : 24, "componentType" : 5126, "count" : 590, "type" : "VEC2", "max" : [1, 1], "min" : [0, 0], "name" : "TEXCOORD_0"}, {"bufferView" : 0, "byteOffset" : 4656, "componentType" : 5123, "count" : 372, "type" : "SCALAR", "max" : [309], "min" : [0]}, {"bufferView" : 6, "byteOffset" : 0, "componentType" : 5126, "count" : 310, "type" : "VEC3", "max" : [1, 1, 1.1230106353759766], "min" : [-1.4043630361557007, -20.69043731689453, -1.0852938890457153], "name" : "POSITION"}, {"bufferView" : 6, "byteOffset" : 12, "componentType" : 5126, "count" : 310, "type" : "VEC3", "max" : [1.0000044107437134, 1.0000044107437134, 1.0000044107437134], "min" : [-1.0000044107437134, -1.0000044107437134, -1.0000044107437134], "name" : "NORMAL"}, {"bufferView" : 6, "byteOffset" : 24, "componentType" : 5126, "count" : 310, "type" : "VEC2", "max" : [0.875, 1], "min" : [0.125, 0], "name" : "TEXCOORD_0"}, {"bufferView" : 0, "byteOffset" : 5400, "componentType" : 5123, "count" : 1188, "type" : "SCALAR", "max" : [995], "min" : [0]}, {"bufferView" : 7, "byteOffset" : 0, "componentType" : 5126, "count" : 996, "type" : "VEC3", "max" : [3.833278179168701, 4.600613594055176, 5.225794792175293], "min" : [-3.833280086517334, -1.7052935361862183, -5.225793838500977], "name" : "POSITION"}, {"bufferView" : 7, "byteOffset" : 12, "componentType" : 5126, "count" : 996, "type" : "VEC3", "max" : [1.0000044107437134, 1.0000044107437134, 1.0000044107437134], "min" : [-1.0000044107437134, -1.0000044107437134, -1.0000044107437134], "name" : "NORMAL"}, {"bufferView" : 7, "byteOffset" : 24, "componentType" : 5126, "count" : 996, "type" : "VEC2", "max" : [0.8750000596046448, 1], "min" : [0.125, 0], "name" : "TEXCOORD_0"}, {"bufferView" : 0, "byteOffset" : 7776, "componentType" : 5123, "count" : 36, "type" : "SCALAR", "max" : [29], "min" : [0]}, {"bufferView" : 8, "byteOffset" : 0, "componentType" : 5126, "count" : 30, "type" : "VEC3", "max" : [1, 1, 1], "min" : [-1, -1, -1], "name" : "POSITION"}, {"bufferView" : 8, "byteOffset" : 12, "componentType" : 5126, "count" : 30, "type" : "VEC3", "max" : [1.0000044107437134, 1.0000042915344238, 0.9966599941253662], "min" : [-1.0000044107437134, -1.0000044107437134, -0.9966598749160767], "name" : "NORMAL"}, {"bufferView" : 8, "byteOffset" : 24, "componentType" : 5126, "count" : 30, "type" : "VEC2", "max" : [0.875, 1], "min" : [0.125, 0], "name" : "TEXCOORD_0"}, {"bufferView" : 0, "byteOffset" : 7848, "componentType" : 5123, "count" : 36, "type" : "SCALAR", "max" : [29], "min" : [0]}, {"bufferView" : 9, "byteOffset" : 0, "componentType" : 5126, "count" : 30, "type" : "VEC3", "max" : [1, 1, 1], "min" : [-1, -1, -1], "name" : "POSITION"}, {"bufferView" : 9, "byteOffset" : 12, "componentType" : 5126, "count" : 30, "type" : "VEC3", "max" : [1.0000044107437134, 1.0000042915344238, 0.9966599941253662], "min" : [-1.0000044107437134, -1.0000044107437134, -0.9966598749160767], "name" : "NORMAL"}, {"bufferView" : 9, "byteOffset" : 24, "componentType" : 5126, "count" : 30, "type" : "VEC2", "max" : [0.875, 1], "min" : [0.125, 0], "name" : "TEXCOORD_0"}, {"bufferView" : 0, "byteOffset" : 7920, "componentType" : 5123, "count" : 36, "type" : "SCALAR", "max" : [29], "min" : [0]}, {"bufferView" : 10, "byteOffset" : 0, "componentType" : 5126, "count" : 30, "type" : "VEC3", "max" : [1, 1, 1], "min" : [-1, -1, -1], "name" : "POSITION"}, {"bufferView" : 10, "byteOffset" : 12, "componentType" : 5126, "count" : 30, "type" : "VEC3", "max" : [1.0000044107437134, 1.0000042915344238, 0.9966599941253662], "min" : [-1.0000044107437134, -1.0000044107437134, -0.9966598749160767], "name" : "NORMAL"}, {"bufferView" : 10, "byteOffset" : 24, "componentType" : 5126, "count" : 30, "type" : "VEC2", "max" : [0.875, 1], "min" : [0.125, 0], "name" : "TEXCOORD_0"}, {"bufferView" : 0, "byteOffset" : 7992, "componentType" : 5123, "count" : 36, "type" : "SCALAR", "max" : [29], "min" : [0]}, {"bufferView" : 11, "byteOffset" : 0, "componentType" : 5126, "count" : 30, "type" : "VEC3", "max" : [1, 1, 1], "min" : [-1, -1, -1], "name" : "POSITION"}, {"bufferView" : 11, "byteOffset" : 12, "componentType" : 5126, "count" : 30, "type" : "VEC3", "max" : [1.0000044107437134, 1.0000042915344238, 0.9966599941253662], "min" : [-1.0000044107437134, -1.0000044107437134, -0.9966598749160767], "name" : "NORMAL"}, {"bufferView" : 11, "byteOffset" : 24, "componentType" : 5126, "count" : 30, "type" : "VEC2", "max" : [0.875, 1], "min" : [0.125, 0], "name" : "TEXCOORD_0"}, {"bufferView" : 0, "byteOffset" : 8064, "componentType" : 5123, "count" : 474, "type" : "SCALAR", "max" : [408], "min" : [0]}, {"bufferView" : 12, "byteOffset" : 0, "componentType" : 5126, "count" : 409, "type" : "VEC3", "max" : [7.917040824890137, 0.13155606389045715, 1.5530989170074463], "min" : [-7.9170427322387695, -0.09968432784080505, -1.5508131980895996], "name" : "POSITION"}, {"bufferView" : 12, "byteOffset" : 12, "componentType" : 5126, "count" : 409, "type" : "VEC3", "max" : [0.9894586801528931, 1.0000044107437134, 1.0000044107437134], "min" : [-0.9894586801528931, -1.0000044107437134, -1.0000044107437134], "name" : "NORMAL"}, {"bufferView" : 12, "byteOffset" : 24, "componentType" : 5126, "count" : 409, "type" : "VEC2", "max" : [1, 1], "min" : [-8.940696716308594E-08, 0], "name" : "TEXCOORD_0"}, {"bufferView" : 0, "byteOffset" : 9012, "componentType" : 5123, "count" : 216, "type" : "SCALAR", "max" : [185], "min" : [0]}, {"bufferView" : 13, "byteOffset" : 0, "componentType" : 5126, "count" : 186, "type" : "VEC3", "max" : [1, 7.096954345703125, 1.0000001192092896], "min" : [-1, -1.0000001192092896, -1.506675362586975], "name" : "POSITION"}, {"bufferView" : 13, "byteOffset" : 12, "componentType" : 5126, "count" : 186, "type" : "VEC3", "max" : [1.0000044107437134, 1.0000044107437134, 1.0000044107437134], "min" : [-1.0000044107437134, -1.0000044107437134, -1.0000044107437134], "name" : "NORMAL"}, {"bufferView" : 13, "byteOffset" : 24, "componentType" : 5126, "count" : 186, "type" : "VEC2", "max" : [0.875, 1], "min" : [0.125, 0], "name" : "TEXCOORD_0"}], "asset" : {"generator" : "Aspose.3D 22.1", "version" : "2.0"}, "buffers" : [{"uri" : "data:application/octet-stream;base64,", "byteLength" : 160604}], "bufferViews" : [{"buffer" : 0, "byteOffset" : 0, "byteLength" : 9444, "target" : 34963}, {"buffer" : 0, "byteOffset" : 9448, "byteLength" : 20928, "byteStride" : 32, "target" : 34962}, {"buffer" : 0, "byteOffset" : 30380, "byteLength" : 12288, "byteStride" : 32, "target" : 34962}, {"buffer" : 0, "byteOffset" : 42672, "byteLength" : 14208, "byteStride" : 32, "target" : 34962}, {"buffer" : 0, "byteOffset" : 56884, "byteLength" : 4608, "byteStride" : 32, "target" : 34962}, {"buffer" : 0, "byteOffset" : 61496, "byteLength" : 22464, "byteStride" : 32, "target" : 34962}, {"buffer" : 0, "byteOffset" : 83964, "byteLength" : 11904, "byteStride" : 32, "target" : 34962}, {"buffer" : 0, "byteOffset" : 95872, "byteLength" : 38016, "byteStride" : 32, "target" : 34962}, {"buffer" : 0, "byteOffset" : 133892, "byteLength" : 1152, "byteStride" : 32, "target" : 34962}, {"buffer" : 0, "byteOffset" : 135048, "byteLength" : 1152, "byteStride" : 32, "target" : 34962}, {"buffer" : 0, "byteOffset" : 136204, "byteLength" : 1152, "byteStride" : 32, "target" : 34962}, {"buffer" : 0, "byteOffset" : 137360, "byteLength" : 1152, "byteStride" : 32, "target" : 34962}, {"buffer" : 0, "byteOffset" : 138516, "byteLength" : 15168, "byteStride" : 32, "target" : 34962}, {"buffer" : 0, "byteOffset" : 153688, "byteLength" : 6912, "byteStride" : 32, "target" : 34962}], "images" : [{"uri" : "data:image/png;base64,"}], "materials" : [{"name" : "Material.001", "pbrMetallicRoughness" : {"baseColorFactor" : [1, 1, 1, 1], "baseColorTexture" : {"index" : 0, "texCoord" : 0}, "metallicFactor" : 0, "roughnessFactor" : 0.5}, "emissiveFactor" : [0, 0, 0], "alphaMode" : "OPAQUE", "doubleSided" : true}, {"name" : "Material.001", "pbrMetallicRoughness" : {"baseColorFactor" : [1, 1, 1, 1], "baseColorTexture" : {"index" : 0, "texCoord" : 0}, "metallicFactor" : 0, "roughnessFactor" : 0.5}, "emissiveFactor" : [0, 0, 0], "alphaMode" : "OPAQUE", "doubleSided" : true}, {"name" : "Material.001", "pbrMetallicRoughness" : {"baseColorFactor" : [1, 1, 1, 1], "baseColorTexture" : {"index" : 0, "texCoord" : 0}, "metallicFactor" : 0, "roughnessFactor" : 0.5}, "emissiveFactor" : [0, 0, 0], "alphaMode" : "OPAQUE", "doubleSided" : true}, {"name" : "Material.001", "pbrMetallicRoughness" : {"baseColorFactor" : [1, 1, 1, 1], "baseColorTexture" : {"index" : 0, "texCoord" : 0}, "metallicFactor" : 0, "roughnessFactor" : 0.5}, "emissiveFactor" : [0, 0, 0], "alphaMode" : "OPAQUE", "doubleSided" : true}], "meshes" : [{"primitives" : [{"attributes" : {"POSITION" : 1, "NORMAL" : 2, "TEXCOORD_0" : 3}, "indices" : 0, "material" : 0, "mode" : 4}]}, {"primitives" : [{"attributes" : {"POSITION" : 5, "NORMAL" : 6, "TEXCOORD_0" : 7}, "indices" : 4, "material" : 1, "mode" : 4}]}, {"primitives" : [{"attributes" : {"POSITION" : 9, "NORMAL" : 10, "TEXCOORD_0" : 11}, "indices" : 8, "material" : 2, "mode" : 4}]}, {"primitives" : [{"attributes" : {"POSITION" : 13, "NORMAL" : 14, "TEXCOORD_0" : 15}, "indices" : 12, "material" : 3, "mode" : 4}]}, {"primitives" : [{"attributes" : {"POSITION" : 17, "NORMAL" : 18, "TEXCOORD_0" : 19}, "indices" : 16, "mode" : 4}]}, {"primitives" : [{"attributes" : {"POSITION" : 21, "NORMAL" : 22, "TEXCOORD_0" : 23}, "indices" : 20, "mode" : 4}]}, {"primitives" : [{"attributes" : {"POSITION" : 25, "NORMAL" : 26, "TEXCOORD_0" : 27}, "indices" : 24, "mode" : 4}]}, {"primitives" : [{"attributes" : {"POSITION" : 29, "NORMAL" : 30, "TEXCOORD_0" : 31}, "indices" : 28, "mode" : 4}]}, {"primitives" : [{"attributes" : {"POSITION" : 33, "NORMAL" : 34, "TEXCOORD_0" : 35}, "indices" : 32, "mode" : 4}]}, {"primitives" : [{"attributes" : {"POSITION" : 37, "NORMAL" : 38, "TEXCOORD_0" : 39}, "indices" : 36, "mode" : 4}]}, {"primitives" : [{"attributes" : {"POSITION" : 41, "NORMAL" : 42, "TEXCOORD_0" : 43}, "indices" : 40, "mode" : 4}]}, {"primitives" : [{"attributes" : {"POSITION" : 45, "NORMAL" : 46, "TEXCOORD_0" : 47}, "indices" : 44, "mode" : 4}]}, {"primitives" : [{"attributes" : {"POSITION" : 49, "NORMAL" : 50, "TEXCOORD_0" : 51}, "indices" : 48, "mode" : 4}]}], "nodes" : [{"matrix" : [1, 0, 0, 0, 0, 1, 0, 0, 0, 0, 1, 0, 0, 1.0217331647872925, 0, 1], "mesh" : 0, "name" : "Cube"}, {"matrix" : [0.2287779450416565, 0, 0, 0, 0, 0.3323073983192444, 0, 0, 0, 0, 0.1054670512676239, 0, 0.7476532459259033, 0.3404562473297119, 0.8136173486709595, 1], "mesh" : 1, "name" : "Cube.001"}, {"matrix" : [0.32219740748405457, 0, 0, 0, 0, 1.4518325361521192E-08, 0.42415843942301984, 0, 0, -0.16902009564272033, 5.7853116031699235E-09, 0, -0.494963139295578, 1.0550177097320557, 0.9654697179794312, 1], "mesh" : 2, "name" : "Plane"}, {"matrix" : [0.23265181481838226, 0, 0, 0, 0, 0.19647158682346344, 0, 0, 0, 0, 0.48936691880226135, 0, -0.2911013066768646, 0.20697158575057983, 0, 1], "mesh" : 3, "name" : "Cube.002"}, {"matrix" : [0.047711096704006195, 0, 0, 0, 0, -0.008149420842528343, 0, 0, 0, 0, 0.1311436891555786, 0, -0.13928629457950592, 0.4300534129142761, 0.023386433720588684, 1], "mesh" : 4, "name" : "Cylinder"}, {"matrix" : [-0.17362965643405914, 0, 0, 0, 0, -0.02182246744632721, 0, 0, 0, 0, -0.48702433705329895, 0, 0.732612133026123, 0.12700051069259644, -0.08586940914392471, 1], "mesh" : 5, "name" : "Cube.004"}, {"matrix" : [0.032006826251745224, 0, 0, 0, 0, 0.10198115557432175, 0, 0, 0, 0, 0.032006826251745224, 0, -0.7458773851394653, 0.19940948486328125, 0.023386389017105103, 1], "mesh" : 6, "name" : "Cube.003"}, {"matrix" : [-0.0174606554210186, 0, 0, 0, 0, -0.04550423100590706, 0, 0, 0, 0, -0.031906936317682266, 0, 0.5794169902801514, 0.06932312250137329, -0.5365960597991943, 1], "mesh" : 7, "name" : "Cube.006"}, {"matrix" : [-0.0174606554210186, 0, 0, 0, 0, -0.04550423100590706, 0, 0, 0, 0, -0.031906936317682266, 0, 0.8442822098731995, 0.06932312250137329, -0.5365960597991943, 1], "mesh" : 8, "name" : "Cube.007"}, {"matrix" : [-0.0174606554210186, 0, 0, 0, 0, -0.04550423100590706, 0, 0, 0, 0, -0.031906936317682266, 0, 0.5794169902801514, 0.06932312250137329, 0.3533996343612671, 1], "mesh" : 9, "name" : "Cube.008"}, {"matrix" : [-0.0174606554210186, 0, 0, 0, 0, -0.04550423100590706, 0, 0, 0, 0, -0.031906936317682266, 0, 0.8442822098731995, 0.06932312250137329, 0.3533996343612671, 1], "mesh" : 10, "name" : "Cube.009"}, {"matrix" : [0.030898425728082657, 0, 0, 0, 0, 0.2352840006351471, 0, 0, 0, 0, 0.165688157081604, 0, -0.09134349226951599, 1.6241352558135986, 0.0495510995388031, 1], "mesh" : 11, "name" : "Plane.001"}, {"matrix" : [0.2470896989107132, 0, 0, 0, 0, 0.06406163424253464, 0, 0, 0, 0, 0.17116880416870117, 0, 0.23200194537639618, 0.07435500621795654, -0.6776904463768005, 1], "mesh" : 12, "name" : "Cube.010"}], "samplers" : [{"magFilter" : 9729, "minFilter" : 9729, "wrapS" : 10497, "wrapT" : 10497}], "scene" : 0, "scenes" : [{"nodes" : [0, 1, 2, 3, 4, 5, 6, 7, 8, 9, 10, 11, 12]}], "textures" : [{"sampler" : 0, "source" : 0}]}